<svg width="200" height="1025" fill="none" xmlns="http://www.w3.org/2000/svg" role="img" aria-label="Иконки для меню каталога на главной странице."><path d="M136.13 105.64V93c0-1.3 1.05-2.37 2.34-2.37l8.32 1.58v-8.19c0-2.35-1.7-3.43-4.2-4.27l-23.19-6.58c1.62 1.4 1.9 2.05 1.9 4.4v45.21c0 2.36-.46 4.07-1.97 5.21l23.26-7.06c2.4-.84 4.2-4.22 4.2-6.58v-7.91l-8.32 1.57a2.35 2.35 0 0 1-2.34-2.37Z" fill="#363636"/><path d="m147.13 93.98-7.6-1.45c-1 0-1.82.83-1.82 1.86v9.86c0 1.03.81 1.86 1.82 1.86l7.6-1.44c1.15-.41 1.82-.82 1.82-1.85v-6.99c0-1.02-.76-1.5-1.82-1.85ZM119.17 77.48c0-5.08-4.23-4.46-4.23-4.46s-57.1 4.72-60.1 5.13c-3 .4-2.84 4.38-2.84 4.38v36.28c0 3.75 2.6 3.75 2.6 3.75l16.48 1.4 8.13-11.66s1.11-1.83 2.5-1.83c1.4 0 2.44 1.86 2.44 1.86l9.06 13.52s18.9 1.91 22.52 1.91c3.63 0 3.44-5.02 3.44-5.02V77.48ZM64.98 110.2c-3.7 0-6.7-4.6-6.7-10.27 0-5.68 3-10.28 6.7-10.28s6.7 4.6 6.7 10.28c0 5.67-3 10.27-6.7 10.27Zm36.16 1.43c-4.66 0-8.44-5.24-8.44-11.7 0-6.47 3.78-11.7 8.44-11.7s8.44 5.23 8.44 11.7c0 6.46-3.78 11.7-8.44 11.7ZM139.82 232.01H60.33a3.19 3.19 0 0 0-3.19 3.19v46.41a3.19 3.19 0 0 0 3.19 3.2h79.5a3.19 3.19 0 0 0 3.18-3.2V235.2a3.19 3.19 0 0 0-3.19-3.19ZM65.4 265.24h-.22a3.19 3.19 0 0 1-3.2-3.2v-7.28a3.19 3.19 0 0 1 3.2-3.18h.22v13.66Zm61.23 15.17H70.34v-44h56.28v44Zm8.78-17.86a4.15 4.15 0 1 1 0-8.29 4.15 4.15 0 0 1 0 8.3ZM111.65 228H88.5v2.76h23.15V228ZM103.6 292.86v-2.97h8.05v-2.76H88.5v2.76h8.04v35.24a6.07 6.07 0 0 0-3.63 5.56V345h14.33v-14.3c0-2.5-1.5-4.63-3.63-5.56v-28h4.8l5.04 1.22v-6.71l-5.05 1.21h-4.8ZM117.35 387.49c0-.74-.58-1.49-1.31-1.49H73.05c-.73 0-1.38.75-1.38 1.49v3.52h45.68v-3.52ZM118.2 467.8h-9.6v-10.37h-6.95v2.5H82.77a3.49 3.49 0 0 0-3.18-2.14H67.56A3.59 3.59 0 0 0 64 461.3v3.02a3.55 3.55 0 0 0 3.56 3.48h12.03c1.52 0 2.8-.9 3.27-2.33h18.79v2.33h-9.52c-.53 0-1.01.44-1.01.97v3.17c0 .54.48 1.05 1.01 1.05h26.07c.53 0 .93-.51.93-1.05v-3.17c0-.53-.4-.97-.93-.97ZM124.67 398.39a7.04 7.04 0 0 0-6.78-5.05H71.16a7.1 7.1 0 0 0-7.15 7.02v46.9a7.18 7.18 0 0 0 7.15 7.12h46.74c3.9 0 7.13-3.2 7.13-7.12v-10.34a23.3 23.3 0 0 0-.36-38.53Zm-48.43 49.76a5.91 5.91 0 1 1 .02-11.82 5.91 5.91 0 0 1-.02 11.82Zm5.96-32.6c0 .78-.64 1.42-1.42 1.42h-8.94c-.78 0-1.42-.64-1.42-1.42v-14.16c0-.79.64-1.43 1.42-1.43h8.94c.78 0 1.42.64 1.42 1.43v14.16Zm29.56 22.3a20.1 20.1 0 0 1-20.06-20.12 20.1 20.1 0 0 1 20.06-20.12 20.1 20.1 0 0 1 20.06 20.13 20.1 20.1 0 0 1-20.06 20.12Z" fill="#363636"/><path d="M111.76 429.96a12.2 12.2 0 0 0 12.19-12.22 12.2 12.2 0 0 0-12.19-12.23 12.2 12.2 0 0 0-12.19 12.23 12.2 12.2 0 0 0 12.2 12.22ZM95.56 419.17a1.43 1.43 0 1 0 0-2.87 1.43 1.43 0 0 0 0 2.87ZM127.96 419.17a1.43 1.43 0 1 0 0-2.87 1.43 1.43 0 0 0 0 2.87ZM103.1 405.43a1.43 1.43 0 1 0 .01-2.87 1.43 1.43 0 0 0 0 2.87ZM120.42 432.91a1.43 1.43 0 1 0-.01-2.86 1.43 1.43 0 0 0 0 2.86ZM119.7 405a1.43 1.43 0 1 0 0-2.87 1.43 1.43 0 0 0 0 2.87ZM103.83 433.34a1.43 1.43 0 1 0 0-2.87 1.43 1.43 0 0 0 0 2.87ZM144.97 566.07a10.4 10.4 0 0 1 1.2 4.82V592c0 4.62-3.09 8.53-7.24 9.9-1.33 4-3.78 7.86-8.05 10.44-8.68 5.23-31.13 4.83-31.2 4.83-.08 0-22.51.4-31.19-4.83a18.73 18.73 0 0 1-8.04-10.28 10.5 10.5 0 0 1-7.76-10.06v-21.1c0-1.68.43-3.28 1.14-4.69-3.66.9-7.83 2.72-7.83 6.23v29.99c0 10.25 11.84 24.43 53.66 24.43 41.82 0 53.65-14.18 53.65-24.43v-29.99c0-3.68-4.57-5.49-8.34-6.36Z" fill="#363636"/><path d="M66.56 600.46h65.52c5.57 0 10.08-4.51 10.08-10.08v-18.45c0-5.56-4.51-10.07-10.08-10.07H66.56a10.08 10.08 0 0 0-10.07 10.07v18.45c0 5.57 4.5 10.08 10.07 10.08Zm63.13-29a1.57 1.57 0 1 1 0 3.15 1.57 1.57 0 0 1 0-3.14Zm0 4.05a1.57 1.57 0 1 1 0 3.13 1.57 1.57 0 0 1 0-3.13Zm0 4.04a1.57 1.57 0 1 1 0 3.13 1.57 1.57 0 0 1 0-3.13Zm0 3.82a1.57 1.57 0 1 1 0 3.14 1.57 1.57 0 0 1 0-3.14Zm0 4.04a1.57 1.57 0 1 1 0 3.14 1.57 1.57 0 0 1 0-3.14Zm-4.03-15.94a1.57 1.57 0 1 1 0 3.13 1.57 1.57 0 0 1 0-3.13Zm0 15.94a1.57 1.57 0 1 1 0 3.14 1.57 1.57 0 0 1 0-3.14Zm-4.04-15.94a1.57 1.57 0 1 1 0 3.14 1.57 1.57 0 0 1 0-3.14Zm0 4.04a1.57 1.57 0 1 1 0 3.14 1.57 1.57 0 0 1 0-3.14Zm0 4.04a1.57 1.57 0 1 1 0 3.13 1.57 1.57 0 0 1 0-3.13Zm0 3.82a1.57 1.57 0 1 1 0 3.14 1.57 1.57 0 0 1 0-3.14Zm0 4.04a1.57 1.57 0 1 1 0 3.14 1.57 1.57 0 0 1 0-3.14Zm-7.66-15.94a1.57 1.57 0 1 1 0 3.13 1.57 1.57 0 0 1 0-3.13Zm0 8.08a1.57 1.57 0 1 1 0 3.13 1.57 1.57 0 0 1 0-3.13Zm0 3.88a1.57 1.57 0 1 1 0 3.13 1.57 1.57 0 0 1 0-3.13Zm0 3.98a1.57 1.57 0 1 1 0 3.14 1.57 1.57 0 0 1 0-3.14Zm-4.03-15.94a1.57 1.57 0 1 1 0 3.14 1.57 1.57 0 0 1 0-3.14Zm0 8.08a1.57 1.57 0 1 1 0 3.13 1.57 1.57 0 0 1 0-3.13Zm0 7.86a1.57 1.57 0 1 1 0 3.14 1.57 1.57 0 0 1 0-3.14Zm-4.04-15.94a1.57 1.57 0 1 1 0 3.14 1.57 1.57 0 0 1 0-3.14Zm0 4.04a1.57 1.57 0 1 1 0 3.14 1.57 1.57 0 0 1 0-3.14Zm0 4.04a1.57 1.57 0 1 1 0 3.14 1.57 1.57 0 0 1 0-3.14Zm0 7.86a1.57 1.57 0 1 1 0 3.14 1.57 1.57 0 0 1 0-3.14Zm-8.3-15.94a1.57 1.57 0 1 1 0 3.14 1.57 1.57 0 0 1 0-3.14Zm0 4.04a1.57 1.57 0 1 1 0 3.13 1.57 1.57 0 0 1 0-3.13Zm0 4.04a1.57 1.57 0 1 1 0 3.13 1.57 1.57 0 0 1 0-3.13Zm0 3.88a1.57 1.57 0 1 1 .01 3.13 1.57 1.57 0 0 1 0-3.13Zm0 3.98a1.57 1.57 0 1 1 0 3.14 1.57 1.57 0 0 1 0-3.14Zm-4.03-11.9a1.57 1.57 0 1 1 0 3.13 1.57 1.57 0 0 1 0-3.13Zm-8.5-.22a1.57 1.57 0 1 1 0 3.15 1.57 1.57 0 0 1 0-3.15Zm0 4.04a1.57 1.57 0 1 1 0 3.14 1.57 1.57 0 0 1 0-3.14Zm-4.04-8.08a1.57 1.57 0 1 1 0 3.14 1.57 1.57 0 0 1 0-3.13Zm0 4.04a1.57 1.57 0 1 1 0 3.14 1.57 1.57 0 0 1 0-3.13Zm0 4.04a1.57 1.57 0 1 1 0 3.14 1.57 1.57 0 0 1 0-3.14Zm0 4.04a1.57 1.57 0 1 1 0 3.14 1.57 1.57 0 0 1 0-3.14Zm-4.26-8.08a1.57 1.57 0 1 1 0 3.14 1.57 1.57 0 0 1 0-3.13Zm0 4.04a1.57 1.57 0 1 1 0 3.14 1.57 1.57 0 0 1 0-3.14Zm0 4.04a1.57 1.57 0 1 1 0 3.14 1.57 1.57 0 0 1 0-3.14Zm0 4.04a1.57 1.57 0 1 1 0 3.14 1.57 1.57 0 0 1 0-3.14Zm-4.46-16.15a1.57 1.57 0 1 1 0 3.14 1.57 1.57 0 0 1 0-3.14Zm0 4.03a1.57 1.57 0 1 1 0 3.15 1.57 1.57 0 0 1 0-3.15Zm0 4.04a1.57 1.57 0 1 1 0 3.14 1.57 1.57 0 0 1 0-3.14Zm0 4.04a1.57 1.57 0 1 1 0 3.15 1.57 1.57 0 0 1 0-3.15Zm-4.04-8.08a1.57 1.57 0 1 1 0 3.15 1.57 1.57 0 0 1 0-3.15Zm0 4.04a1.57 1.57 0 1 1 0 3.14 1.57 1.57 0 0 1 0-3.14ZM126.5 743.2h-1.52v-4.64a9.16 9.16 0 0 0-9.08-9.19H81.08c-5 0-9.08 4.13-9.08 9.19v42.87a9.16 9.16 0 0 0 9.08 9.18h34.82c5 0 9.08-4.13 9.08-9.19v-3.41h1.52c.41 0 .75-.34.75-.76v-13.78a.76.76 0 0 0-.75-.77h-1.52v-8.79h1.52c.83 0 1.5-.68 1.5-1.53v-7.65c0-.84-.67-1.53-1.5-1.53Zm-20.42-3.11c2.93 0 5.3 2.4 5.3 5.36a5.33 5.33 0 0 1-5.3 5.35c-2.92 0-5.3-2.4-5.3-5.35a5.33 5.33 0 0 1 5.3-5.36Zm-15.14 0c2.93 0 5.3 2.4 5.3 5.36a5.33 5.33 0 0 1-5.3 5.35c-2.92 0-5.3-2.4-5.3-5.35a5.33 5.33 0 0 1 5.3-5.36Zm-13.64 20.3a5.33 5.33 0 0 1 5.3-5.35c2.92 0 5.3 2.4 5.3 5.36a5.33 5.33 0 0 1-5.3 5.36c-2.93 0-5.3-2.4-5.3-5.36Zm13.64 19.5c-2.92 0-5.3-2.4-5.3-5.35a5.33 5.33 0 0 1 5.3-5.36c2.93 0 5.3 2.4 5.3 5.36a5.33 5.33 0 0 1-5.3 5.35Zm1.5-19.9a6.09 6.09 0 0 1 6.05-6.12 6.09 6.09 0 0 1 6.06 6.12 6.09 6.09 0 0 1-6.06 6.13 6.1 6.1 0 0 1-6.05-6.13Zm13.64 19.9c-2.92 0-5.3-2.4-5.3-5.35a5.33 5.33 0 0 1 5.3-5.36c2.93 0 5.3 2.4 5.3 5.36a5.33 5.33 0 0 1-5.3 5.35Zm8.3-14.13c-2.92 0-5.3-2.4-5.3-5.36a5.33 5.33 0 0 1 5.3-5.36c2.93 0 5.3 2.4 5.3 5.36a5.33 5.33 0 0 1-5.3 5.36ZM81.65 726.31h33.68c.85 0 1.44-.68 1.3-1.51l-1.6-10.77a3.68 3.68 0 0 0-3.52-3.03H85.47a3.68 3.68 0 0 0-3.51 3.03l-1.62 10.76c-.12.84.46 1.52 1.3 1.52ZM115.33 793.67H81.65c-.85 0-1.43.68-1.3 1.52l1.6 10.76a3.68 3.68 0 0 0 3.52 3.03h26.03a3.68 3.68 0 0 0 3.52-3.02l1.62-10.77a1.28 1.28 0 0 0-1.3-1.52ZM46.05 890.26c-5.54.49-10.21 1.6-11.47 2.67-.73.62-.73.62-.24 1.16.65.72 3.72 1.64 7.25 2.23 4 .67 12.51.7 13.72.05 1.22-.66 1.63-1.41 1.63-2.98 0-1.62-.62-2.41-2.22-2.85-1.45-.39-5.78-.54-8.67-.28ZM59.77 890.49c-.12.28-.25 2.1-.25 4.11 0 4.06.15 3.78-2.2 3.93l-1.03.08-.25 5.09-1.2.28c-2.57.67-3.99 2.6-3.78 5.3.13 1.92 1.03 3.34 2.58 4.08 1.1.52 1.47.54 11.24.54 5.55 0 10.14.08 10.19.18.05.13-1.1 9.4-2.58 20.64-1.44 11.23-2.68 21-2.7 21.67-.06 1.61.82 2.62 2.34 2.62 1.24 0 2.01-.64 2.32-1.9.13-.52 1.5-10.34 3.02-21.83a727.85 727.85 0 0 1 2.94-20.86c.1 0 1.08 1.4 2.2 3.13 2.93 4.63 2.4 4.32 7.63 4.32h4.36v5.63l-5.14.08c-4.72.07-5.2.12-5.88.61-1.57 1.16-1.62 1.42-1.62 10.98 0 9.53.02 9.79 1.52 11.05l.85.7h31.37l.85-.7c1.5-1.26 1.52-1.52 1.52-11.05 0-9.56-.05-9.82-1.63-10.98-.67-.49-1.16-.54-5.88-.61l-5.13-.08v-5.63h4.36c5.23 0 4.7.3 7.63-4.32a25.5 25.5 0 0 1 2.2-3.13c.07 0 1.42 9.4 2.94 20.87 1.52 11.48 2.89 21.3 3.02 21.82.3 1.26 1.08 1.9 2.32 1.9 1.52 0 2.4-1 2.34-2.62-.02-.67-1.26-10.44-2.7-21.67a900.66 900.66 0 0 1-2.58-20.64c.05-.1 4.64-.18 10.19-.18 9.77 0 10.13-.02 11.24-.54 1.55-.74 2.45-2.16 2.58-4.08a4.74 4.74 0 0 0-3.8-5.3l-1.18-.28-.26-5.09-1.03-.08c-2.34-.15-2.2.13-2.2-3.93 0-2-.12-3.83-.25-4.11-.2-.36-.54-.49-1.37-.49-.62 0-1.23.13-1.42.3-.2.21-.3 1.47-.3 3.94 0 2.47-.1 3.73-.31 3.93-.18.18-.9.31-1.65.31-1.63 0-1.66.05-1.66 3.11v2.29H66.48v-2.29c0-3.06-.02-3.1-1.65-3.1-.75 0-1.47-.14-1.65-.32-.2-.2-.31-1.46-.31-3.93s-.1-3.73-.3-3.93c-.19-.18-.81-.31-1.43-.31-.82 0-1.16.13-1.37.49Zm42.85 40.12c2.89.9 5.39 3.4 6.16 6.17.44 1.54.31 4.21-.28 5.78-.7 1.88-2.69 4-4.57 4.94-1.29.64-1.75.71-3.92.71-2.16 0-2.63-.07-3.92-.72a10.22 10.22 0 0 1-4.56-4.93c-.6-1.57-.73-4.24-.29-5.78a9.58 9.58 0 0 1 6.06-6.17 7.57 7.57 0 0 1 5.32 0Z" fill="#363636"/><path d="M97.8 934.44c-2.04.92-3.51 3.65-3.07 5.73a5.43 5.43 0 0 0 8 3.7 5.3 5.3 0 0 0 2.44-5.78 5.38 5.38 0 0 0-5.16-4.14c-.64 0-1.62.23-2.22.49ZM70.1 890.15c-3.93.67-4.52 1.13-4.52 3.45 0 1.82.46 2.41 2.27 2.95 1.55.47 7.17.52 10.5.13 6.86-.82 11.32-2.54 9.7-3.75-1.27-.9-4.9-1.88-9.06-2.39-2.47-.3-8-.54-8.9-.39ZM123.48 890.26c-6.31.59-11.86 2.08-11.86 3.18 0 1.73 7.84 3.47 15.63 3.5 5.8 0 7.2-.64 7.2-3.34 0-1.83-.62-2.62-2.38-3.09-1.65-.4-5.67-.51-8.59-.25ZM146.78 890.28c-1.78.23-3.02.77-3.43 1.5-.4.76-.31 2.9.15 3.57.93 1.3 1.65 1.46 7.07 1.46 3.66 0 5.8-.13 7.87-.49 3.53-.59 6.6-1.51 7.24-2.23.5-.54.5-.54-.23-1.16-1.34-1.13-5.96-2.18-11.92-2.67-3.48-.28-4.48-.28-6.75.02Z" fill="#363636"/><rect x=".5" y=".5" width="199" height="1024" rx="4.5" stroke="#7B61FF" stroke-dasharray="10 5"/></svg>
