<svg width="560" height="388" fill="none" xmlns="http://www.w3.org/2000/svg" role="img" aria-label="Еще иконки для сайта."><path d="M3.6 43V7.5h8.2v23.85L27.1 7.5h7.65V43h-8.2V19.3L11.45 43H3.6Zm37.58 0V16.75h7.95v9.4h1.9l6.5-9.4h8.6l-9 12.6L67.08 43h-9.15l-7.05-9.9h-1.75V43h-7.95Zm41.06.5c-3 0-5.55-.63-7.65-1.9a12.9 12.9 0 0 1-4.75-5 14.04 14.04 0 0 1-1.65-6.7c0-2.43.55-4.68 1.65-6.75a12.8 12.8 0 0 1 4.8-5c2.1-1.27 4.64-1.9 7.6-1.9 2.97 0 5.5.63 7.6 1.9a12.8 12.8 0 0 1 4.8 5 14.14 14.14 0 0 1 1.65 6.75c0 2.4-.55 4.63-1.65 6.7a12.8 12.8 0 0 1-4.8 5 14.45 14.45 0 0 1-7.6 1.9ZM76.4 29.9c0 2.03.55 3.68 1.65 4.95a5.41 5.41 0 0 0 4.2 1.9c1.64 0 3-.63 4.1-1.9a7.14 7.14 0 0 0 1.7-4.95c0-2.03-.56-3.68-1.7-4.95a5.21 5.21 0 0 0-4.1-1.9c-1.66 0-3.06.63-4.2 1.9a7.28 7.28 0 0 0-1.65 4.95ZM100.31 43V16.75h8v9.5h8.95v-9.5h8V43h-8V32.85h-8.95V43h-8Zm30.57 0V16.75h7.95v9.4h1.9l6.5-9.4h8.6l-9 12.6L156.78 43h-9.15l-7.05-9.9h-1.75V43h-7.95Zm29.93 0V16.75h8v15.6l10.15-15.6h7.3V43h-8V27.85L168.16 43h-7.35Z" fill="#000"/><g clip-path="url(#a)" fill="#000"><path d="m50.7 371.76-6.5-8.2c-.3-.4-.7-.6-1.2-.6h-8.3v-5.1c0-.8-.7-1.5-1.5-1.5H5.5c-.8 0-1.5.7-1.5 1.5s.7 1.5 1.5 1.5h26.2V381.06H19.8c-.6-1.9-2.4-3.3-4.5-3.3-2.6 0-4.8 2.2-4.8 4.8 0 2.6 2.2 4.8 4.8 4.8 2.1 0 3.9-1.4 4.5-3.3h13.4c.8 0 1.5-.7 1.5-1.5v-16.6h7.6l5.7 7.3v7.9h-2.2c-.6-1.9-2.4-3.3-4.5-3.3-2.6 0-4.8 2.2-4.8 4.8 0 2.6 2.1 4.8 4.8 4.8 2.1 0 3.9-1.4 4.5-3.3h3.7c.8 0 1.5-.7 1.5-1.5v-9.9c0-.4-.1-.7-.3-1Zm-35.4 12.6c-1 0-1.8-.8-1.8-1.8s.8-1.8 1.8-1.8 1.8.8 1.8 1.8-.9 1.8-1.8 1.8Zm26.1 0c-1 0-1.8-.8-1.8-1.8s.8-1.8 1.8-1.8 1.8.8 1.8 1.8-.9 1.8-1.8 1.8Z"/><path d="M23.4 365.96c.8 0 1.5-.7 1.5-1.5s-.7-1.5-1.5-1.5H8.8c-.8 0-1.5.7-1.5 1.5s.7 1.5 1.5 1.5h14.6ZM21.7 371.06c0-.8-.7-1.5-1.5-1.5H5.5c-.8 0-1.5.7-1.5 1.5s.7 1.5 1.5 1.5h14.7c.8 0 1.5-.7 1.5-1.5Z"/></g><g clip-path="url(#b)"><path d="M31.2 176.36v35.3h-7.6v-2.4c-1.7 1.9-4.1 3.1-7.5 3.1-6.6 0-12.1-5.8-12.1-13.3 0-7.5 5.5-13.3 12.1-13.3 3.4 0 5.9 1.2 7.5 3.1v-12.5h7.6Zm-7.6 22.7c0-3.8-2.5-6.2-6-6.2s-6 2.4-6 6.2c0 3.8 2.5 6.2 6 6.2 3.5-.1 6-2.4 6-6.2ZM47.7 205.56c2.1 0 3.8-.8 4.8-1.9l6.1 3.5c-2.5 3.4-6.2 5.2-11 5.2-8.6 0-14-5.8-14-13.3 0-7.5 5.4-13.3 13.4-13.3 7.4 0 12.8 5.7 12.8 13.3 0 1.1-.1 2.1-.3 3H41.6c1 2.6 3.3 3.5 6.1 3.5Zm4.6-9.1c-.8-2.9-3.1-4-5.4-4-2.9 0-4.8 1.4-5.5 4h10.9ZM86.1 186.46l-9.3 25.2h-8.6l-9.3-25.2h8.4l5.3 16 5.3-16h8.2ZM87.4 186.46H95v25.2h-7.6v-25.2ZM97.6 199.06c0-7.5 5.7-13.3 13.4-13.3 4.9 0 9.2 2.6 11.4 6.5l-6.6 3.8c-.9-1.8-2.7-2.8-4.9-2.8-3.3 0-5.7 2.4-5.7 5.8 0 3.5 2.4 5.8 5.7 5.8 2.2 0 4.1-1.1 4.9-2.8l6.6 3.8c-2.1 3.9-6.4 6.5-11.4 6.5-7.7 0-13.4-5.8-13.4-13.3ZM136.8 205.56c2.1 0 3.8-.8 4.8-1.9l6.1 3.5c-2.5 3.4-6.2 5.2-11 5.2-8.6 0-14-5.8-14-13.3 0-7.5 5.5-13.3 13.4-13.3 7.4 0 12.8 5.7 12.8 13.3 0 1.1-.1 2.1-.3 3h-17.9c1 2.6 3.3 3.5 6.1 3.5Zm4.7-9.1c-.8-2.9-3.1-4-5.4-4-2.9 0-4.8 1.4-5.5 4h10.9Z" fill="#000"/><path d="M87.4 176.36v10.1l7.6-10.1h-7.6Z" fill="#510094"/></g><g clip-path="url(#c)"><path d="M141 274.36H61v7h80v-7Z" fill="#000"/></g><g clip-path="url(#d)"><path d="M24 330.36h-3.5l-16.5-30 16.5-30H24l-16.2 30 16.2 30Z" fill="#000"/></g><path d="M61 334.9v2.6h2.5v-2.6H61ZM72.6 326.5c-1.6 0-2.8.7-3.6 1.7h-.1V322h-2v15.5h2v-5.3c0-2.1 1.3-3.6 3.3-3.6 1.8 0 2.9 1.4 2.9 3.2v5.7h2v-6.1c.1-3-1.8-4.9-4.5-4.9ZM87.6 326.8h-4.8v-3.7h-2v3.8h-1.9v2h1.9v6c0 1.7 1 2.7 2.7 2.7h4.1v-2h-3.7c-.7 0-1.1-.4-1.1-1.1v-5.7h4.8v-2ZM102.1 326.6c-1.6 0-2.9.8-3.5 2.1h-.1c-.6-1.2-1.8-2.1-3.4-2.1-1.4 0-2.5.8-3.1 1.8h-.1v-1.6H90v10.6h2V332c0-2 1-3.5 2.6-3.5 1.5 0 2.4 1 2.4 2.6v6.3h2v-5.6c0-2.4 1.4-3.3 2.6-3.3 1.5 0 2.4 1 2.4 2.6v6.3h2v-6.5c.1-2.5-1.4-4.3-3.9-4.3ZM108.8 334.7c0 1.7 1 2.7 2.8 2.7h2v-2h-1.7c-.7 0-1.1-.4-1.1-1.1V322h-2v12.7ZM89.9 341.7c-.9-1.1-2.2-1.8-3.9-1.8-3.1 0-5.4 2.3-5.4 5.6s2.3 5.6 5.4 5.6c1.8 0 3-.8 3.8-1.9h.1v1.6h2v-10.6h-2v1.5Zm-3.6 7.4c-2.2 0-3.6-1.6-3.6-3.6s1.4-3.6 3.6-3.6 3.6 1.6 3.6 3.6c0 1.9-1.4 3.6-3.6 3.6ZM105.2 344c-.5-2.4-2.6-4.1-5.4-4.1a5.4 5.4 0 0 0-5.6 5.6c0 3.1 2.2 5.6 5.6 5.6 2.8 0 4.9-1.8 5.4-4.2h-2.1a3.4 3.4 0 0 1-3.3 2.3c-2.2 0-3.6-1.6-3.6-3.6s1.4-3.6 3.6-3.6c1.6 0 2.8 1 3.3 2.2h2.1v-.2ZM116.1 341.7c-.9-1.1-2.2-1.8-3.9-1.8-3.1 0-5.4 2.3-5.4 5.6s2.3 5.6 5.4 5.6c1.8 0 3-.8 3.8-1.9h.1v1.6h2v-10.6h-2v1.5Zm-3.6 7.4c-2.2 0-3.6-1.6-3.6-3.6s1.4-3.6 3.6-3.6 3.6 1.6 3.6 3.6c0 1.9-1.5 3.6-3.6 3.6ZM129.7 341.8c-.9-1.1-2.2-1.9-3.9-1.9-3.1 0-5.4 2.3-5.4 5.6s2.2 5.6 5.4 5.6c1.7 0 3-.8 3.8-1.8h.1v1.5h2v-15.4h-2v6.4Zm-3.6 7.3c-2.2 0-3.6-1.6-3.6-3.6s1.4-3.6 3.6-3.6 3.6 1.6 3.6 3.6c-.1 2-1.5 3.6-3.6 3.6ZM139.3 339.9c-3.3 0-5.5 2.5-5.5 5.6 0 3 2.1 5.6 5.5 5.6 2.5 0 4.5-1.3 5.2-3.6h-2.1c-.5 1-1.6 1.6-3 1.6-1.9 0-3.3-1.3-3.4-2.9h8.8c.2-3.6-2-6.3-5.5-6.3Zm0 1.9c1.7 0 3 1 3.3 2.6h-6.5c.3-1.5 1.5-2.6 3.2-2.6ZM159.2 339.9c-1.6 0-2.9.8-3.6 2h-.1c-.6-1.2-1.8-2-3.4-2-1.4 0-2.5.7-3.1 1.8v-1.5h-1.9v10.6h2v-5.4c0-2 1-3.4 2.6-3.5 1.5 0 2.4 1 2.4 2.6v6.3h2v-5.6c0-2.4 1.4-3.3 2.6-3.3 1.5 0 2.4 1 2.4 2.6v6.3h2v-6.5c.1-2.6-1.4-4.4-3.9-4.4ZM170.4 349l-3.6-8.9h-2.2l4.8 11.6c-.3.9-.7 1.2-1.7 1.2h-2.5v2h2.5c1.8 0 2.8-.8 3.5-2.6l4.7-12.2h-2.1l-3.4 8.9Z" fill="#000"/><path d="M189 316a24 24 0 1 0 0-48 24 24 0 0 0 0 48Z" fill="#FFE17F"/><path d="M189.1 284.2a5.7 5.7 0 0 0-5.6 5.8c0 .6.1 1.1.2 1.6.1.4.3.9.5 1.2.8 1.7 2 3.3 4.3 6 .2.2.7.6 1.3-.1 4.8-5.4 4.8-8.1 4.8-8.1v-.7c.1-3.1-2.4-5.7-5.5-5.7Z" fill="#000"/><path d="M189 268c-13.3 0-24 10.7-24 24 0 11.9 8.7 21.8 20.1 23.7l4 6.3 4-6.4A23.88 23.88 0 0 0 213 292c0-13.3-10.7-24-24-24Zm9 22.4s.1 4.3-8.1 13c-.8.8-1.6 0-1.6 0-3.8-4.4-5.8-6.9-7.1-9.6-.3-.6-.6-1.2-.8-1.9-.2-.8-.4-1.6-.4-2.5 0-5 4.1-9.1 9.1-9.1s9.1 4.1 9.1 9.1c-.1.3-.2.6-.2 1Z" fill="#000"/><g clip-path="url(#e)"><path d="m111.8 296.1-3-3c-.2-.2-.5-.2-.7 0-.1.2-.1.6 0 .8l2.6 2.6-2.6 2.6c-.1.2-.1.5 0 .7.1.1.3.2.4.2.1 0 .3-.1.4-.1l3-3c0-.1.1-.3.1-.4 0-.1-.1-.3-.2-.4Z" fill="#000"/></g><g clip-path="url(#f)"><path d="M31 330.36h3.5l16.5-30-16.5-30H31l16.2 30-16.2 30Z" fill="#000"/></g><path d="m78 293-9.6 9.3L64 298v4.7l4.5 4.3 9.5-9.3V293Z" fill="#08AF00"/><path d="m98 293-6.9 6.6-3.1-3v3.3l3.2 3.1 6.8-6.7V293ZM136 299h-14l7-6 7 6Z" fill="#000"/><defs><clipPath id="a"><path fill="#fff" transform="translate(4 356.36)" d="M0 0h47v31H0z"/></clipPath><clipPath id="b"><path fill="#fff" transform="translate(4 176.36)" d="M0 0h145v36H0z"/></clipPath><clipPath id="c"><path fill="#fff" transform="translate(61 274.36)" d="M0 0h80v7H0z"/></clipPath><clipPath id="d"><path fill="#fff" transform="translate(4 270.36)" d="M0 0h20v60H0z"/></clipPath><clipPath id="e"><path fill="#fff" transform="translate(108 293)" d="M0 0h4v7H0z"/></clipPath><clipPath id="f"><path fill="#fff" transform="translate(31 270.36)" d="M0 0h20v60H0z"/></clipPath></defs></svg>
